<svg width="30" height="31" viewBox="0 0 30 31" fill="none" xmlns="http://www.w3.org/2000/svg">
<mask id="mask0_193304_49" style="mask-type:alpha" maskUnits="userSpaceOnUse" x="0" y="0" width="31" height="31">
<rect x="0.00292969" y="0.96582" width="30" height="30" fill="#D9D9D9"/>
</mask>
<g mask="url(#mask0_193304_49)">
<path d="M4.62945 28.1682C3.95872 28.1682 3.38454 27.9294 2.90689 27.4517C2.42925 26.9741 2.19043 26.3999 2.19043 25.7292V8.65599C2.19043 7.98526 2.42925 7.41107 2.90689 6.93343C3.38454 6.45578 3.95872 6.21696 4.62945 6.21696H15.5136L13.0746 8.65599H4.62945V25.7292H21.7026V17.2535L24.1416 14.8145V25.7292C24.1416 26.3999 23.9028 26.9741 23.4252 27.4517C22.9475 27.9294 22.3734 28.1682 21.7026 28.1682H4.62945ZM18.2575 6.91818L19.9953 8.6255L11.9465 16.6743V18.4121H13.6538L21.7331 10.3328L23.4709 12.0401L15.3916 20.1194C15.1681 20.343 14.9089 20.5208 14.6142 20.6529C14.3195 20.7851 14.0095 20.8511 13.6843 20.8511H10.727C10.3815 20.8511 10.0919 20.7342 9.85811 20.5005C9.62437 20.2668 9.5075 19.9771 9.5075 19.6316V16.6743C9.5075 16.3491 9.56848 16.0391 9.69043 15.7444C9.81238 15.4497 9.98515 15.1905 10.2087 14.967L18.2575 6.91818ZM23.4709 12.0401L18.2575 6.91818L21.3063 3.8694C21.7941 3.3816 22.3784 3.1377 23.0593 3.1377C23.7402 3.1377 24.3144 3.3816 24.7819 3.8694L26.4892 5.60721C26.9567 6.07469 27.1904 6.64379 27.1904 7.31452C27.1904 7.98526 26.9567 8.55436 26.4892 9.02184L23.4709 12.0401Z" fill="#CDCDCD"/>
</g>
</svg>
