<svg width="30" height="31" viewBox="0 0 30 31" fill="none" xmlns="http://www.w3.org/2000/svg">
<path d="M25.2302 3.46582H4.77566H4.50293C3.39836 3.46582 2.50293 4.36155 2.50293 5.46612C2.50293 5.64591 2.50293 5.77328 2.50293 5.80579V26.2603V26.4658C2.50293 27.5704 3.39865 28.4658 4.50322 28.4658C4.6467 28.4658 4.74694 28.4658 4.77565 28.4658H25.2302C25.2589 28.4658 25.3592 28.4658 25.5026 28.4658C26.6072 28.4658 27.5029 27.5699 27.5029 26.4653C27.5029 26.3585 27.5029 26.2846 27.5029 26.2603V5.80576C27.5029 5.77326 27.5029 5.6459 27.5029 5.46612C27.5029 4.36155 26.6072 3.46582 25.5026 3.46582C25.3591 3.46582 25.2589 3.46582 25.2302 3.46582ZM17.2757 26.2603H4.77566V17.1694H17.2757V26.2603ZM17.2757 14.8967H4.77566V5.80579L17.2757 5.80576V14.8967ZM25.2302 26.2603H19.5484V5.80579H25.2302V26.2603Z" fill="#CDCDCD"/>
</svg>
